<svg xmlns="http://www.w3.org/2000/svg" 
    width="250" 
    height="250" 
    viewBox="40 40 130 130">
  <path 
    fill="#14b8a6"
    stroke="#14b8a6"
    stroke-width="1.5"
    d="m 60.385061,151.15357 c -4.75928,-1.48264 -7.37924,-4.8741 -7.73315,-10.01036 l -0.18828,-2.73249 -1.43817,-0.24213 c -2.00454,-0.33749 -4.75335,-1.84365 -5.86628,-3.21432 -1.28432,-1.58175 -1.49515,-3.74406 -0.5459,-5.59881 1.01543,-1.98404 2.98459,-3.11505 7.61065,-4.37126 0.25721,-0.0698 0.3995,-0.72479 0.3995,-1.83885 v -1.73037 l -1.67786,-0.39359 c -5.74427,-1.3475 -8.54692,-5.5199 -6.11111,-9.09781 0.46202,-0.67864 1.07324,-1.42328 1.35827,-1.65474 0.98052,-0.79626 3.71204,-1.96337 5.07024,-2.1664 l 1.36046,-0.20336 v -1.84726 -1.84724 l -1.24464,-0.20961 c -0.68455,-0.11528 -2.08806,-0.60721 -3.11893,-1.09318 -6.78387,-3.198024 -5.17973,-10.046844 2.78229,-11.878824 l 1.58128,-0.36384 v -1.82054 -1.82054 l -1.36046,-0.20337 c -1.72309,-0.25757 -4.292,-1.46661 -5.42796,-2.55465 -1.41584,-1.35611 -1.93074,-2.638391 -1.76206,-4.388203 0.26724,-2.772357 2.93138,-5.098347 6.83761,-5.96973 l 1.74319,-0.388864 -0.0951,-1.770551 -0.0951,-1.770552 -1.72432,-0.438542 c -4.1217,-1.04827 -6.44831,-3.125446 -6.66026,-5.946242 -0.25853,-3.440631 2.39958,-5.882891 7.6655,-7.043036 0.84521,-0.186208 0.87888,-0.270509 0.87888,-2.200451 0,-4.445712 2.02094,-7.79368 5.89641,-9.768187 l 2.18846,-1.115001 37.184985,-0.08483 37.184984,-0.08483 v 7.984033 7.984037 l -2.10872,-0.0942 -2.10871,-0.0942 0.0446,-5.116305 c 0.0246,-2.813966 -0.0486,-5.358557 -0.16262,-5.654647 -0.19244,-0.499884 -2.2596,-0.538342 -28.93636,-0.538342 H 73.077266 v 49.698873 49.698864 l 28.843214,-0.0813 28.84321,-0.0813 0.0601,-5.25643 c 0.0331,-2.89104 0.069,-5.43563 0.0799,-5.65465 0.0137,-0.2757 0.65883,-0.39821 2.09712,-0.39821 h 2.07735 v 7.96429 7.96429 l -36.673234,-0.0213 c -29.39106,-0.0171 -36.940635,-0.10462 -38.019975,-0.44086 z M 68.603046,97.458566 V 47.761384 h -3.56733 c -3.238535,0 -3.694325,0.07419 -4.945195,0.804897 -0.8505,0.496835 -1.71748,1.380811 -2.26522,2.309644 l -0.88738,1.504748 v 6.530719 6.530719 l 0.79898,-0.105371 c 0.97203,-0.128196 2.94079,-1.228094 3.29172,-1.838993 0.17723,-0.308537 0.8875,-0.444924 2.31704,-0.444924 1.861825,0 2.061465,0.06293 2.061465,0.649836 0,1.19141 -1.258365,3.128698 -2.653945,4.085818 -1.26552,0.867917 -3.59857,1.779889 -5.17607,2.023287 -0.61081,0.09425 -0.64304,0.377721 -0.72584,6.386275 -0.0849,6.157684 -0.0731,6.287655 0.56955,6.287655 0.97084,0 2.62805,-0.772711 3.32185,-1.548889 0.50096,-0.560441 0.96809,-0.681112 2.63664,-0.681112 1.903995,0 2.027815,0.04482 2.027815,0.734059 0,0.403732 -0.41639,1.388542 -0.925315,2.188464 -1.05231,1.65403 -3.83695,3.26182 -6.28246,3.62738 l -1.42122,0.21245 v 6.33525 c 0,5.82387 0.0452,6.33471 0.55928,6.32828 0.80611,-0.0101 3.04047,-1.07531 3.55466,-1.69467 0.32472,-0.39114 0.96791,-0.52834 2.47684,-0.52834 1.926865,0 2.038215,0.0409 2.038215,0.74931 0,2.024944 -3.037185,4.645934 -6.377645,5.503704 l -2.25135,0.57812 v 6.32617 6.32619 l 1.03867,-0.22297 c 1.40879,-0.30242 2.79127,-1.03643 3.00688,-1.59646 0.26496,-0.68828 4.583445,-0.66295 4.583445,0.0269 0,2.39336 -3.210395,5.09634 -7.020485,5.91085 l -1.60851,0.34386 v 6.35111 6.3511 l 0.87887,-0.21056 c 1.27465,-0.30538 3.27584,-1.3558 3.27584,-1.71948 0,-0.17455 1.00358,-0.3121 2.27709,-0.3121 h 2.277095 l -0.20748,1.03407 c -0.4585,2.28518 -3.641865,4.71859 -6.903455,5.27709 l -1.43817,0.24627 0.023,2.09195 c 0.029,2.62777 1.09307,4.62971 3.09737,5.82717 1.23451,0.73754 1.67093,0.80913 4.949295,0.81187 l 3.59542,0.003 z M 52.557531,131.78466 c -0.1066,-2.62214 -0.18951,-2.66655 -2.73054,-1.46273 -2.29319,1.08642 -1.67307,2.50774 1.516,3.47472 0.44058,0.13359 0.91521,0.25521 1.05474,0.27027 0.13953,0.0151 0.21144,-1.01196 0.1598,-2.28226 z m 0.0659,-17.16491 v -2.27169 l -1.12161,0.18143 c -1.43361,0.23191 -3.03309,1.36169 -3.03309,2.14242 0,0.61592 0.68451,1.12912 2.39694,1.79707 1.70014,0.66315 1.75776,0.60254 1.75776,-1.84923 z m 0,-17.161184 c 0,-2.58595 -0.20021,-2.70388 -2.56892,-1.51322 -1.11623,0.56109 -1.42599,0.88979 -1.42599,1.51322 0,0.62343 0.30976,0.95212 1.42599,1.51321 2.36871,1.190664 2.56892,1.072744 2.56892,-1.51321 z m 0,-17.23741 v -2.264538 l -0.87888,0.212609 c -3.24745,0.785575 -4.04381,2.33886 -1.83766,3.584303 0.70311,0.396925 1.60196,0.724041 1.99746,0.726924 0.67876,0.0049 0.71908,-0.121717 0.71908,-2.259298 z m 0,-17.187135 c 0,-2.557385 -0.0643,-2.593151 -2.49399,-1.386274 -2.18723,1.086463 -2.28277,2.014138 -0.30244,2.936772 1.70847,0.79598 2.25474,0.966011 2.55673,0.795802 0.13184,-0.0743 0.2397,-1.13014 0.2397,-2.3463 z m 61.841129,75.926409 c -1.05466,-0.46573 -1.96829,-0.88183 -2.0303,-0.92468 -0.062,-0.0428 0.61675,-4.99703 1.50835,-11.00932 l 1.6211,-10.93143 3.32314,-7.64572 c 15.1089,-34.761764 18.30632,-42.123442 21.51596,-49.537888 2.00998,-4.643182 4.09116,-9.344299 4.62485,-10.446926 2.72006,-5.619811 9.73593,-6.863697 14.11166,-2.501938 1.77425,1.768582 2.30901,3.200141 2.27849,6.099574 -0.0265,2.521007 -0.064,2.632994 -3.46244,10.353578 -1.88959,4.292753 -5.95771,13.610974 -9.04026,20.707156 -8.85438,20.383224 -13.76608,31.693884 -15.65051,36.040004 l -1.74458,4.02356 -6.71576,7.44502 c -3.69367,4.09477 -7.0997,7.83444 -7.56896,8.3104 l -0.85319,0.86538 z m 8.91462,-13.25598 c 1.38752,-1.52613 2.44378,-2.85352 2.34722,-2.94976 -0.3873,-0.38607 -6.07811,-2.69447 -6.24137,-2.53174 -0.20942,0.20876 -1.64373,9.54417 -1.64176,10.68563 0.002,0.88385 -0.003,0.88845 5.53591,-5.20413 z m 7.61467,-12.23766 c 15.94899,-36.701598 20.70322,-47.698213 20.70322,-47.886913 0,-0.27651 -7.67583,-3.583364 -7.86952,-3.390297 -0.0771,0.07681 -4.95168,11.233455 -10.83249,24.792536 -5.88082,13.559094 -11.05376,25.408684 -11.49542,26.332444 -0.44167,0.92376 -0.80108,1.85558 -0.79871,2.07071 0.003,0.29498 6.7436,3.55373 7.67087,3.70864 0.0906,0.0151 1.27055,-2.51707 2.62205,-5.62712 z m 24.45368,-56.307542 c 0.89497,-2.102573 1.71299,-4.089087 1.81781,-4.414476 0.34182,-1.061013 -0.41841,-2.974109 -1.58894,-3.998571 -0.91808,-0.803511 -1.40267,-0.984597 -2.63219,-0.983625 -1.70816,0.0013 -3.21863,0.76785 -3.81885,1.937906 -1.33243,2.597429 -3.56127,8.102663 -3.36038,8.300123 0.47364,0.465542 7.59408,3.382893 7.77259,3.184551 0.10051,-0.111676 0.91499,-1.923335 1.80996,-4.025908 z"></path>
</svg>
